<svg version="1.2" xmlns="http://www.w3.org/2000/svg" viewBox="0 0 640 512" width="60" height="60">
	<title>graduation-cap-solid-svg</title>
	<style>
		.s0 { fill: #38b1cf } 
	</style>
	<path id="Layer" fill-rule="evenodd" class="s0" d="m343.7 36.1l280.5 101.3c9.5 3.5 15.8 12.5 15.8 22.6 0 10.1-6.3 19.2-15.8 22.6l-280.6 101c-7.6 2.7-15.6 4.1-23.7 4.1-8.1 0-16.1-1.4-23.7-4.1l-159.6-57.6c8.9-9.2 19.8-16.7 32.2-21.6l157-61.7c8.2-3.2 12.2-12.5 9-20.7-3.2-8.2-12.5-12.2-20.7-9l-157 61.7c-19.6 7.7-36.3 20.2-49.2 35.7-17.7 22.8-27.9 51.3-27.9 81.5v24.6c6 13.3 10.3 27.8 13.5 42 6.4 27.5 10.7 65.9 2.1 108.7-0.8 4.3-3.4 8.1-7.1 10.4-3.7 2.3-8.2 3.1-12.4 2l-64-16c-5.2-1.3-9.4-5.1-11.2-10.2-1.8-5.1-0.9-10.7 2.3-15 8.6-11.8 16-24.6 22.5-37.6 11.5-23.1 22.3-52.4 22.3-80.8v-28.1c0-32.1 9.3-62.6 25.7-88.4l-57.9-20.9c-9.5-3.5-15.8-12.5-15.8-22.6 0-10.1 6.3-19.1 15.8-22.6l280.5-101.3c7.6-2.7 15.6-4.1 23.7-4.1 8.1 0 16.1 1.4 23.7 4.1zm-200.4 226.5l142.2 51.4c11 4 22.8 6 34.5 6 11.7 0 23.4-2 34.5-6l142.2-51.4 15.3 145.4c0 35.3-86 72-192 72-106 0-192-36.7-192-72z"/>
</svg>